<svg width="159" height="19" viewBox="0 0 159 19" fill="none" xmlns="http://www.w3.org/2000/svg">
<g clip-path="url(#clip0_1_1554)">
<path d="M34.6052 3.86891C49.7085 3.31242 64.82 2.95468 79.9316 2.79569C95.0431 2.63669 110.015 2.68969 125.052 2.94143C133.595 3.08718 142.145 3.28592 150.688 3.55092L151.847 0.834737C132.345 1.37797 112.851 2.0537 93.3577 2.86193C73.8639 3.67016 54.3702 4.61089 34.8765 5.69736C23.9334 6.30684 12.9985 6.94283 2.05537 7.63181C1.41407 7.67156 0.452132 7.93655 0.0903763 8.94352C-0.246715 9.88425 0.378137 10.3745 0.896106 10.348C21.212 9.51326 41.5443 9.43376 61.8684 10.1227C82.1925 10.8117 102.5 12.2824 122.783 14.5084C134.179 15.7538 145.566 17.2511 156.936 18.9868C157.553 19.0795 158.572 18.5893 158.901 17.675C159.263 16.6813 158.589 16.3368 158.096 16.2706C137.862 13.1834 117.579 10.8515 97.2794 9.28802C76.98 7.72456 56.6476 6.94283 36.3235 6.92958C24.9036 6.92958 13.4836 7.15482 2.06359 7.63181L0.904327 10.348C20.3898 9.11577 39.8835 8.0293 59.3773 7.06207C78.871 6.1081 98.3647 5.27337 117.858 4.58439C128.802 4.20015 139.753 3.84241 150.696 3.53767C151.337 3.52442 152.307 3.21967 152.661 2.22595C153.014 1.23223 152.365 0.834737 151.855 0.821487C136.735 0.370999 121.632 0.0927564 106.521 0.0265081C91.4091 -0.0397401 76.4373 0.0795067 61.3998 0.410748C52.8574 0.596243 44.3068 0.847987 35.7645 1.16598C35.1232 1.19248 34.153 1.48397 33.7995 2.47769C33.4624 3.41842 34.0872 3.90866 34.6052 3.88216V3.86891Z" fill="#00308F"/>
</g>
<defs>
<clipPath id="clip0_1_1554">
<rect width="159" height="19" fill="white"/>
</clipPath>
</defs>
</svg>
