<svg width="51" height="53" viewBox="0 0 51 53" fill="none" xmlns="http://www.w3.org/2000/svg">
<g clip-path="url(#clip0_1_1531)">
<path d="M1.85001 4.57006L0.850013 28.1901C0.530013 35.9701 -0.0699866 43.7901 1.34003e-05 51.5801C0.0100134 52.8301 3.88001 52.0101 3.99001 50.8001C4.71001 43.0501 4.77001 35.2001 5.09001 27.4201L6.07001 4.05006C6.14001 2.32006 1.89001 3.17006 1.84001 4.58006L1.85001 4.57006Z" fill="black"/>
<path d="M2.50001 6.04003C15.87 5.35003 29.22 4.03003 42.49 2.29003L41.12 0.820028C35.68 5.24003 30.03 9.36003 24.1 13.1C23.23 13.65 22.96 14.51 24.12 14.84C31.66 16.97 39.2 19.11 46.73 21.26L48.3 18.96C33.08 21.61 17.85 24.4 2.78001 27.81C2.21001 27.94 1.07001 28.43 1.10001 29.16C1.13001 29.89 2.25001 29.95 2.77001 29.85C17.74 26.92 32.69 23.9 47.72 21.28C48.45 21.15 49.55 20.88 49.96 20.16C50.32 19.53 49.9 19.15 49.29 18.98C41.74 16.86 34.19 14.73 26.65 12.59L26.67 14.33C32.83 10.41 38.78 6.15003 44.41 1.50003C45.65 0.480028 43.93 -0.0999722 43.04 0.0300278C29.93 1.84003 16.74 3.04003 3.52001 3.86003C2.84001 3.90003 1.64001 4.32003 1.38001 5.04003C1.12001 5.76003 1.88001 6.07003 2.50001 6.04003Z" fill="black"/>
</g>
<defs>
<clipPath id="clip0_1_1531">
<rect width="50.27" height="52.2" fill="white"/>
</clipPath>
</defs>
</svg>
